# xmcd
#
# Track frame offsets:
#	150
#	19488
#	40643
#	76109
#	90002
#	111854
#	138694
#	153454
#	186963
#	209313
# Disc length: 3071 seconds
# Revision: 1
# Processed by: cddbd v1.5.2PL0 Copyright (c) Steve Scherf et al.
#
# Submitted via: libkcddb 0.31
#
DISCID=790bfd0a
DTITLE=Last Fair Deal - another lucid moment
DYEAR=2004
DGENRE=Blues
TTITLE0=It's Hard To Love Another Man's Woman
TTITLE1=Crossroad Blues
TTITLE2=No More Doggin'
TTITLE3=Harry Irene
TTITLE4=Ticket For The Night
TTITLE5=I Heard My Baby
TTITLE6=Another Lucid Moment
TTITLE7=Bottle Up And Go
TTITLE8=Marrakech
TTITLE9=Love In Vain
EXTD=
EXTT0=
EXTT1=
EXTT2=
EXTT3=
EXTT4=
EXTT5=
EXTT6=
EXTT7=
EXTT8=
EXTT9=
PLAYORDER=
